<?xml version="1.0" encoding="UTF-8" standalone="no"?>
<!-- Created with Inkscape (http://www.inkscape.org/) -->

<svg
   xmlns:dc="http://purl.org/dc/elements/1.1/"
   xmlns:cc="http://creativecommons.org/ns#"
   xmlns:rdf="http://www.w3.org/1999/02/22-rdf-syntax-ns#"
   xmlns:svg="http://www.w3.org/2000/svg"
   xmlns="http://www.w3.org/2000/svg"
   xmlns:sodipodi="http://sodipodi.sourceforge.net/DTD/sodipodi-0.dtd"
   xmlns:inkscape="http://www.inkscape.org/namespaces/inkscape"
   width="210mm"
   height="297mm"
   viewBox="0 0 210 297"
   version="1.1"
   id="svg8"
   inkscape:version="0.92.4 (5da689c313, 2019-01-14)"
   sodipodi:docname="LOGO_Music_For_Events.svg">
  <defs
     id="defs2" />
  <sodipodi:namedview
     id="base"
     pagecolor="#ffffff"
     bordercolor="#666666"
     borderopacity="1.0"
     inkscape:pageopacity="0.0"
     inkscape:pageshadow="2"
     inkscape:zoom="1.979899"
     inkscape:cx="506.75819"
     inkscape:cy="739.6926"
     inkscape:document-units="mm"
     inkscape:current-layer="layer1"
     showgrid="false"
     inkscape:window-width="1366"
     inkscape:window-height="705"
     inkscape:window-x="-8"
     inkscape:window-y="-8"
     inkscape:window-maximized="1"
     showguides="false"
     inkscape:guide-bbox="true">
    <sodipodi:guide
       position="120.13765,267.13589"
       orientation="1,0"
       id="guide132"
       inkscape:locked="false" />
    <sodipodi:guide
       position="120.13765,185.68551"
       orientation="0,1"
       id="guide4887"
       inkscape:locked="false" />
    <sodipodi:guide
       position="122.7835,178.58457"
       orientation="0,1"
       id="guide4889"
       inkscape:locked="false" />
    <sodipodi:guide
       position="127.77279,201.50882"
       orientation="0,1"
       id="guide4921"
       inkscape:locked="false" />
  </sodipodi:namedview>
  <metadata
     id="metadata5">
    <rdf:RDF>
      <cc:Work
         rdf:about="">
        <dc:format>image/svg+xml</dc:format>
        <dc:type
           rdf:resource="http://purl.org/dc/dcmitype/StillImage" />
        <dc:title></dc:title>
      </cc:Work>
    </rdf:RDF>
  </metadata>
  <g
     inkscape:label="Capa 1"
     inkscape:groupmode="layer"
     id="layer1">
    <flowRoot
       xml:space="preserve"
       id="flowRoot18"
       style="font-style:normal;font-weight:normal;font-size:40px;line-height:1.25;font-family:sans-serif;letter-spacing:0px;word-spacing:0px;fill:#000000;fill-opacity:1;stroke:none"
       transform="scale(0.26458333)"><flowRegion
         id="flowRegion20"><rect
           id="rect22"
           width="110"
           height="42.857143"
           x="13.571428"
           y="86.805397" /></flowRegion><flowPara
         id="flowPara24">f</flowPara></flowRoot>    <path
       style="fill:#cebb24;stroke:none;stroke-width:0.26458332px;stroke-linecap:butt;stroke-linejoin:miter;stroke-opacity:1;fill-opacity:1"
       d="m 73.948968,98.806403 v 5.764137 l 4.724702,-1.79539 v -2.26785 z"
       id="path63-5"
       inkscape:connector-curvature="0" />
    <path
       style="fill:#cebb24;fill-opacity:1;stroke:none;stroke-width:0.26458332px;stroke-linecap:butt;stroke-linejoin:miter;stroke-opacity:1"
       d="m 180.06579,86.144202 v 23.718008 c 0,0 -0.56695,-4.34673 -6.42558,-6.80357 -5.85864,-2.45685 -14.83557,-2.55134 -14.83557,-2.55134 L 94.690409,99.137133 c 0,0 -1.275671,-0.141742 -2.220606,0.425223 -1.884666,1.130804 -1.748144,3.861714 -1.748142,5.291664 10e-7,1.84263 0.304393,7.19068 3.810794,7.16968 3.034294,-0.0182 55.490375,0.052 55.490375,0.052 0,0 6.7826,0.79747 6.65569,-4.67034 0.13019,-4.90177 -4.86822,-4.2649 -6.80357,-4.25223 -1.60641,-0.0945 -71.20128,-0.37798 -71.20128,-0.37798 v -2.26785 l 74.60307,0.66146 c 0,0 5.61147,0.28164 5.57514,6.2366 -0.0479,7.85198 -8.45722,6.89807 -8.45722,6.89807 l -55.751495,0.0334 c 0,0 -6.609578,1.24442 -6.709078,-9.57731 -0.08166,-8.88169 6.898069,-8.362723 6.898069,-8.362723 l 57.924854,-0.614213 c 0,0 14.74107,-0.850445 18.99331,-1.889879 4.25223,-1.039437 8.31547,-7.748513 8.31547,-7.748513 z"
       id="path65-6"
       inkscape:connector-curvature="0"
       sodipodi:nodetypes="ccsccsssccccccsccscccc" />
    <path
       style="fill:#cebb24;fill-opacity:1;stroke:none;stroke-width:0.14906119px;stroke-linecap:butt;stroke-linejoin:miter;stroke-opacity:1"
       d="m 113.54198,111.39725 v 7.01818 h 4.15775 v -7.04817 z"
       id="path67-6"
       inkscape:connector-curvature="0" />
    <path
       style="fill:#cebb24;fill-opacity:1;stroke:none;stroke-width:0.14895946px;stroke-linecap:butt;stroke-linejoin:miter;stroke-opacity:1"
       d="m 118.62576,111.40684 v 7.0086 h 4.15774 v -7.03856 z"
       id="path67-1-7"
       inkscape:connector-curvature="0" />
    <path
       style="fill:#cebb24;fill-opacity:1;stroke:none;stroke-width:0.14543128px;stroke-linecap:butt;stroke-linejoin:miter;stroke-opacity:1"
       d="m 123.61505,95.519731 v 6.680529 h 4.15774 v -6.709077 z"
       id="path67-8-1"
       inkscape:connector-curvature="0" />
    <g
       aria-label="FOR"
       transform="scale(1.2767302,0.78325083)"
       style="font-style:normal;font-weight:normal;font-size:8.28940392px;line-height:1.25;font-family:sans-serif;letter-spacing:0px;word-spacing:0px;fill:#000000;fill-opacity:1;stroke:none;stroke-width:0.2072351"
       id="text28-8-9">
      <path
         d="m 89.115033,115.66068 h 2.481155 v 1.1576 h -1.254744 v 0.98761 h 1.104984 v 1.12117 h -1.104984 v 2.13711 h -1.226411 z"
         style="font-style:normal;font-variant:normal;font-weight:normal;font-stretch:normal;font-family:'Tw Cen MT Condensed Extra Bold';-inkscape-font-specification:'Tw Cen MT Condensed Extra Bold, ';stroke-width:0.2072351"
         id="path158" />
      <path
         d="m 94.162341,121.19774 q -0.979509,0 -1.49355,-0.7488 -0.51404,-0.75284 -0.51404,-2.16949 0,-1.30736 0.51404,-2.03592 0.518088,-0.73261 1.440932,-0.73261 0.983557,0 1.501645,0.73261 0.522135,0.73261 0.522135,2.09259 0,1.35998 -0.51404,2.11282 -0.509993,0.7488 -1.457122,0.7488 z m -0.04452,-4.46041 q -0.6638,0 -0.6638,1.55831 0,1.0038 0.16595,1.33974 0.169998,0.33595 0.489755,0.33595 0.344043,0 0.526183,-0.33595 0.186188,-0.33594 0.186188,-1.31545 0,-1.5826 -0.704276,-1.5826 z"
         style="font-style:normal;font-variant:normal;font-weight:normal;font-stretch:normal;font-family:'Tw Cen MT Condensed Extra Bold';-inkscape-font-specification:'Tw Cen MT Condensed Extra Bold, ';stroke-width:0.2072351"
         id="path160" />
      <path
         d="m 97.048252,115.66068 h 1.428788 q 0.866178,0 1.368076,0.44523 0.501894,0.44523 0.501894,1.21022 0,0.39262 -0.19023,0.76094 -0.190237,0.36428 -0.554518,0.55047 l 0.979508,2.43663 H 99.286553 L 98.2949,118.60326 h -0.02024 v 2.46091 h -1.22641 z m 1.22641,1.04427 v 1.28308 q 0.81356,-0.0162 0.81356,-0.57071 0,-0.37642 -0.190235,-0.53832 -0.186188,-0.16191 -0.623325,-0.17405 z"
         style="font-style:normal;font-variant:normal;font-weight:normal;font-stretch:normal;font-family:'Tw Cen MT Condensed Extra Bold';-inkscape-font-specification:'Tw Cen MT Condensed Extra Bold, ';stroke-width:0.2072351"
         id="path162" />
    </g>
    <g
       aria-label="M"
       transform="matrix(0.46528149,-0.2391525,0.13510566,0.26285387,70.170718,85.804287)"
       style="font-style:normal;font-weight:normal;font-size:40px;line-height:1.25;font-family:sans-serif;letter-spacing:0px;word-spacing:0px;fill:#000000;fill-opacity:1;stroke:none"
       id="flowRoot10-8-2">
      <path
         d="M 42.662109,51.870166 H 38.794922 V 26.811572 L 30.708984,43.862353 H 28.404297 L 20.376953,26.811572 V 51.870166 H 16.763672 V 22.788135 h 5.273437 l 7.753907,16.191406 7.5,-16.191406 h 5.371093 z"
         style=""
         id="path155" />
    </g>
    <g
       aria-label="EVENTS"
       transform="matrix(0.2923749,0,0,0.18033194,92.011781,80.976857)"
       style="font-style:normal;font-weight:normal;font-size:40px;line-height:1.25;font-family:sans-serif;letter-spacing:0px;word-spacing:0px;fill:#000000;fill-opacity:1;stroke:none"
       id="flowRoot30-6-1">
      <path
         d="M 38.78125,160.44243 H 19.621094 V 131.3604 H 38.78125 v 3.4375 H 23.488281 v 7.96875 H 38.78125 v 3.4375 H 23.488281 v 10.80078 H 38.78125 Z"
         style=""
         id="path165" />
      <path
         d="m 67.863281,131.3604 -10.585937,29.08203 h -5.15625 L 41.535156,131.3604 h 4.140625 l 9.121094,25.58594 9.121094,-25.58594 z"
         style=""
         id="path167" />
      <path
         d="M 91.4375,160.44243 H 72.277344 V 131.3604 H 91.4375 v 3.4375 H 76.144531 v 7.96875 H 91.4375 v 3.4375 H 76.144531 v 10.80078 H 91.4375 Z"
         style=""
         id="path169" />
      <path
         d="m 119.77734,160.44243 h -4.78515 l -13.78906,-26.01562 v 26.01562 H 97.589844 V 131.3604 h 5.996096 l 12.57812,23.75 v -23.75 h 3.61328 z"
         style=""
         id="path171" />
      <path
         d="m 148.25391,134.7979 h -10.39063 v 25.64453 h -3.86719 V 134.7979 h -10.39062 v -3.4375 h 24.64844 z"
         style=""
         id="path173" />
      <path
         d="m 173.09766,152.14165 q 0,1.69922 -0.80079,3.35938 -0.78125,1.66015 -2.20703,2.8125 -1.5625,1.25 -3.65234,1.95312 -2.07031,0.70313 -5,0.70313 -3.14453,0 -5.66406,-0.58594 -2.5,-0.58594 -5.09766,-1.73828 v -4.84375 h 0.27344 q 2.20703,1.83593 5.09765,2.83203 2.89063,0.99609 5.42969,0.99609 3.59375,0 5.58594,-1.34765 2.01172,-1.34766 2.01172,-3.59375 0,-1.9336 -0.95703,-2.85157 -0.9375,-0.91797 -2.8711,-1.42578 -1.46484,-0.39062 -3.18359,-0.64453 -1.69922,-0.25391 -3.61328,-0.64453 -3.86719,-0.82031 -5.74219,-2.79297 -1.85547,-1.99219 -1.85547,-5.17578 0,-3.65234 3.08594,-5.97656 3.08594,-2.34375 7.83203,-2.34375 3.06641,0 5.625,0.58593 2.55859,0.58594 4.53125,1.44532 v 4.57031 h -0.27344 q -1.66015,-1.40625 -4.375,-2.32422 -2.69531,-0.9375 -5.52734,-0.9375 -3.10547,0 -5,1.28906 -1.875,1.28907 -1.875,3.32032 0,1.8164 0.9375,2.85156 0.9375,1.03515 3.30078,1.58203 1.25,0.27344 3.55469,0.66406 2.30469,0.39063 3.90625,0.80078 3.24219,0.85938 4.88281,2.59766 1.64063,1.73828 1.64063,4.86328 z"
         style=""
         id="path175" />
    </g>
    <g
       aria-label="U"
       transform="matrix(0.5172279,-0.07846068,0.0443252,0.29220022,89.161574,74.784083)"
       style="font-style:normal;font-weight:normal;font-size:40px;line-height:1.25;font-family:sans-serif;letter-spacing:0px;word-spacing:0px;fill:#000000;fill-opacity:1;stroke:none"
       id="flowRoot10-8-9">
      <path
         d="m 38.658203,40.190478 q 0,3.164063 -0.703125,5.527344 -0.683594,2.34375 -2.265625,3.90625 -1.503906,1.484375 -3.515625,2.167969 -2.011719,0.683594 -4.6875,0.683594 -2.734375,0 -4.765625,-0.722657 -2.03125,-0.722656 -3.417969,-2.128906 Q 17.720703,48.02251 17.017578,45.756885 16.333984,43.49126 16.333984,40.190478 V 22.788135 h 3.867188 v 17.597656 q 0,2.363281 0.3125,3.730469 0.332031,1.367187 1.09375,2.480468 0.859375,1.269532 2.324219,1.914063 1.484375,0.644531 3.554687,0.644531 2.089844,0 3.554688,-0.625 1.464843,-0.644531 2.34375,-1.933594 0.761718,-1.113281 1.074218,-2.539062 0.332032,-1.445313 0.332032,-3.574219 V 22.788135 h 3.867187 z"
         style=""
         id="path152" />
    </g>
    <g
       aria-label="S"
       transform="matrix(0.52297595,-0.01330183,0.00751468,0.29544749,107.27784,71.26097)"
       style="font-style:normal;font-weight:normal;font-size:40px;line-height:1.25;font-family:sans-serif;letter-spacing:0px;word-spacing:0px;fill:#000000;fill-opacity:1;stroke:none"
       id="flowRoot10-8-0">
      <path
         d="m 37.896484,43.569385 q 0,1.699218 -0.800781,3.359375 -0.78125,1.660156 -2.207031,2.8125 -1.5625,1.25 -3.652344,1.953125 -2.070312,0.703125 -5,0.703125 -3.144531,0 -5.664062,-0.585938 -2.5,-0.585937 -5.097657,-1.738281 v -4.84375 h 0.273438 q 2.207031,1.835937 5.097656,2.832031 2.890625,0.996094 5.429688,0.996094 3.59375,0 5.585937,-1.347656 2.011719,-1.347657 2.011719,-3.59375 0,-1.933594 -0.957031,-2.851563 -0.9375,-0.917969 -2.871094,-1.425781 -1.464844,-0.390625 -3.183594,-0.644531 -1.699219,-0.253907 -3.613281,-0.644532 -3.867188,-0.820312 -5.742188,-2.792968 -1.855468,-1.992188 -1.855468,-5.175782 0,-3.652343 3.085937,-5.976562 3.085938,-2.34375 7.832031,-2.34375 3.066407,0 5.625,0.585937 2.558594,0.585938 4.53125,1.445313 v 4.570312 h -0.273437 q -1.660156,-1.40625 -4.375,-2.324218 -2.695313,-0.9375 -5.527344,-0.9375 -3.105469,0 -5,1.289062 -1.875,1.289063 -1.875,3.320313 0,1.816406 0.9375,2.851562 0.9375,1.035156 3.300781,1.582031 1.25,0.273438 3.554688,0.664063 2.304687,0.390625 3.90625,0.800781 3.242187,0.859375 4.882812,2.597656 1.640625,1.738282 1.640625,4.863282 z"
         style=""
         id="path149" />
    </g>
    <g
       aria-label="I"
       transform="matrix(0.50597825,0.13291649,-0.07508919,0.28584489,128.89696,69.768237)"
       style="font-style:normal;font-weight:normal;font-size:40px;line-height:1.25;font-family:sans-serif;letter-spacing:0px;word-spacing:0px;fill:#000000;fill-opacity:1;stroke:none"
       id="flowRoot10-8-97">
      <path
         d="M 27.017578,51.870166 H 15.533203 v -2.96875 h 3.808594 V 25.756885 h -3.808594 v -2.96875 h 11.484375 v 2.96875 h -3.808594 v 23.144531 h 3.808594 z"
         style=""
         id="path146" />
    </g>
    <g
       aria-label="C"
       transform="matrix(0.46646319,0.23683933,-0.13379886,0.26352146,143.60526,72.430286)"
       style="font-style:normal;font-weight:normal;font-size:40px;line-height:1.25;font-family:sans-serif;letter-spacing:0px;word-spacing:0px;fill:#000000;fill-opacity:1;stroke:none"
       id="flowRoot10-8-22">
      <path
         d="m 39.224609,49.760791 q -1.074218,0.46875 -1.953125,0.878906 -0.859375,0.410156 -2.265625,0.859375 -1.191406,0.371094 -2.597656,0.625 -1.386719,0.273438 -3.066406,0.273438 -3.164063,0 -5.761719,-0.878907 -2.578125,-0.898437 -4.492187,-2.792968 -1.875,-1.855469 -2.929688,-4.707032 -1.054687,-2.871093 -1.054687,-6.660156 0,-3.59375 1.015625,-6.425781 1.015625,-2.832031 2.929687,-4.785156 1.855469,-1.894532 4.472656,-2.890625 2.636719,-0.996094 5.839844,-0.996094 2.34375,0 4.667969,0.566406 2.34375,0.566406 5.195312,1.992188 v 4.589843 h -0.292968 q -2.402344,-2.011718 -4.765625,-2.929687 -2.363282,-0.917969 -5.058594,-0.917969 -2.207031,0 -3.984375,0.722656 -1.757813,0.703125 -3.144531,2.207032 -1.347657,1.464843 -2.109375,3.710937 -0.742188,2.226563 -0.742188,5.15625 0,3.066406 0.820313,5.273438 0.839843,2.207031 2.148437,3.59375 1.367188,1.445312 3.183594,2.148437 1.835937,0.683594 3.867187,0.683594 2.792969,0 5.234375,-0.957031 2.441407,-0.957032 4.570313,-2.871094 h 0.273437 z"
         style=""
         id="path143" />
    </g>
    <rect
       style="opacity:1;fill:#ffffff;fill-opacity:0;stroke:none;stroke-width:1.11199999;stroke-linecap:round;stroke-linejoin:round;stroke-miterlimit:4;stroke-dasharray:none;stroke-dashoffset:0;stroke-opacity:1;paint-order:stroke fill markers"
       id="rect285"
       width="23.056549"
       height="8.1264877"
       x="109.61309"
       y="103.2872" />
    <flowRoot
       xml:space="preserve"
       id="flowRoot4796"
       style="font-style:normal;font-weight:normal;font-size:40px;line-height:1.25;font-family:sans-serif;letter-spacing:0px;word-spacing:0px;fill:#000000;fill-opacity:1;stroke:none"
       transform="matrix(0.14133313,0,0,0.14133313,37.682078,43.262055)"><flowRegion
         id="flowRegion4798"><rect
           id="rect4800"
           width="125.00001"
           height="256.42859"
           x="46.42857"
           y="307.51968" /></flowRegion><flowPara
         id="flowPara4802"
         style="font-size:13.33333397px;line-height:1">RGB</flowPara><flowPara
         id="flowPara4812"
         style="font-size:13.33333397px;line-height:1">R 206</flowPara><flowPara
         id="flowPara4828"
         style="font-size:13.33333397px;line-height:1">G 187</flowPara><flowPara
         id="flowPara4830"
         style="font-size:13.33333397px;line-height:1">B 36</flowPara><flowPara
         id="flowPara4832"
         style="font-size:13.33333397px;line-height:1">A 255</flowPara></flowRoot>    <rect
       style="opacity:1;fill:#cebb24;fill-opacity:1;stroke:none;stroke-width:1.11199999;stroke-linecap:round;stroke-linejoin:round;stroke-miterlimit:4;stroke-dasharray:none;stroke-dashoffset:0;stroke-opacity:1;paint-order:stroke fill markers"
       id="rect4834"
       width="6.8035712"
       height="6.0476193"
       x="42.900299"
       y="80.419632" />
    <rect
       style="opacity:1;fill:#000000;fill-opacity:1;stroke:none;stroke-width:1.11199999;stroke-linecap:round;stroke-linejoin:round;stroke-miterlimit:4;stroke-dasharray:none;stroke-dashoffset:0;stroke-opacity:1;paint-order:stroke fill markers"
       id="rect4834-7"
       width="6.8035712"
       height="6.0476193"
       x="25.513386"
       y="80.419632" />
    <flowRoot
       xml:space="preserve"
       id="flowRoot4796-5"
       style="font-style:normal;font-weight:normal;font-size:40px;line-height:1.25;font-family:sans-serif;letter-spacing:0px;word-spacing:0px;fill:#000000;fill-opacity:1;stroke:none"
       transform="matrix(0.14133313,0,0,0.14133313,20.296034,43.862527)"><flowRegion
         id="flowRegion4798-1"><rect
           id="rect4800-0"
           width="125.00001"
           height="256.42859"
           x="46.42857"
           y="307.51968" /></flowRegion><flowPara
         id="flowPara4802-5"
         style="font-size:13.33333397px;line-height:1">RGB</flowPara><flowPara
         id="flowPara4812-6"
         style="font-size:13.33333397px;line-height:1">R 0</flowPara><flowPara
         id="flowPara4828-6"
         style="font-size:13.33333397px;line-height:1">G 0</flowPara><flowPara
         id="flowPara4830-2"
         style="font-size:13.33333397px;line-height:1">B 0</flowPara><flowPara
         id="flowPara4832-7"
         style="font-size:13.33333397px;line-height:1">A 255</flowPara></flowRoot>    <path
       style="fill:#cebb24;fill-opacity:1;stroke:none;stroke-width:0.1490612px;stroke-linecap:butt;stroke-linejoin:miter;stroke-opacity:1"
       d="m 123.47098,111.34448 v 7.01818 h 4.15775 v -7.04817 z"
       id="path67-6-5"
       inkscape:connector-curvature="0" />
    <path
       style="fill:#cebb24;fill-opacity:1;stroke:none;stroke-width:0.14543128px;stroke-linecap:butt;stroke-linejoin:miter;stroke-opacity:1"
       d="m 118.62576,95.475551 v 6.680529 h 4.15774 v -6.709079 z"
       id="path67-8-1-8"
       inkscape:connector-curvature="0" />
    <path
       style="fill:#cebb24;fill-opacity:1;stroke:none;stroke-width:0.14543128px;stroke-linecap:butt;stroke-linejoin:miter;stroke-opacity:1"
       d="m 113.54198,95.519731 v 6.680529 h 4.15774 v -6.709079 z"
       id="path67-8-1-3"
       inkscape:connector-curvature="0" />
  </g>
</svg>
